<svg version="1" xmlns="http://www.w3.org/2000/svg" width="346.667" height="346.667" viewBox="0 0 260.000000 260.000000"><path d="M110 7.6c-4.1.7-10 2-13 2.9-3 .8-6 1.7-6.7 1.8-.7.2-1.6.6-1.9 1-.4.4-1.4.7-2.3.7-.9 0-6 2.3-11.4 5C42 35.5 19 63.9 10 99c-3.2 12.1-4.3 23.3-3.7 36.4.3 6.7.8 12.8 1.1 13.6.3.8.7 2.6 1 4 1.4 8.5 5.7 21.3 10.2 30.5 4.8 9.8 6.2 12 12.6 20.5 6.8 8.9 9.7 12 16.8 18 2.9 2.5 5.8 5 6.4 5.5C59.1 232 82.7 245 86 245c.9 0 2 .3 2.4.7.3.4 1.2.8 1.9.9.7.2 3.7 1 6.8 1.8 20.5 5.7 41.6 6 61.9.9 3.6-.9 7.1-1.6 7.8-1.6.6 0 1.2-.5 1.2-1s.7-.7 1.5-.3c.8.3 2 0 2.7-.7.8-.7 2-1.3 2.8-1.5.8-.1 5.6-2.3 10.7-4.9 22.6-11.3 43.3-32 53.7-53.8 5.8-12.1 6.7-14.4 9.8-26.3 6.8-26.7 3.9-56.8-8.1-82.7-2.9-6.2-9.5-17-11.8-19.3-.7-.7-1.3-1.8-1.3-2.3 0-1.8-20.5-21.6-27-26.1-15.4-10.7-30.7-17.1-51.5-21.4-6-1.2-32-1.1-39.5.2z"/></svg>